<svg width="14" height="14" viewBox="0 0 14 14" fill="none" xmlns="http://www.w3.org/2000/svg">
<g clip-path="url(#clip0_216_2033)">
<path fill-rule="evenodd" clip-rule="evenodd" d="M2.625 8.75C3.10824 8.75 3.5 9.14174 3.5 9.625V12.25C3.5 12.7333 3.10824 13.125 2.625 13.125H1.75C1.26675 13.125 0.875 12.7333 0.875 12.25V9.625C0.875 9.14174 1.26675 8.75 1.75 8.75H2.625ZM12.25 0.875C12.7333 0.875 13.125 1.26675 13.125 1.75V12.25C13.125 12.7333 12.7333 13.125 12.25 13.125H11.375C10.8917 13.125 10.5 12.7333 10.5 12.25V1.75C10.5 1.26675 10.8917 0.875 11.375 0.875H12.25ZM7.4375 4.375C7.92075 4.375 8.3125 4.76676 8.3125 5.25V12.25C8.3125 12.7333 7.92075 13.125 7.4375 13.125H6.5625C6.07926 13.125 5.6875 12.7333 5.6875 12.25V5.25C5.6875 4.76676 6.07926 4.375 6.5625 4.375H7.4375Z" fill="#AFAFAF"/>
</g>
<defs>
<clipPath id="clip0_216_2033">
<rect width="14" height="14" fill="white"/>
</clipPath>
</defs>
</svg>
