<svg width="16" height="16" viewBox="0 0 16 16" fill="none" xmlns="http://www.w3.org/2000/svg">
<path fill-rule="evenodd" clip-rule="evenodd" d="M2.84623 10.1537C3.44099 10.1537 3.92315 10.6359 3.92315 11.2307V14.4614C3.92315 15.0562 3.44099 15.5383 2.84623 15.5383H1.76931C1.17454 15.5383 0.692383 15.0562 0.692383 14.4614V11.2307C0.692383 10.6359 1.17454 10.1537 1.76931 10.1537H2.84623ZM14.6924 0.461426C15.2872 0.461426 15.7693 0.943586 15.7693 1.53835V14.4614C15.7693 15.0562 15.2872 15.5383 14.6924 15.5383H13.6155C13.0207 15.5383 12.5385 15.0562 12.5385 14.4614V1.53835C12.5385 0.943586 13.0207 0.461426 13.6155 0.461426H14.6924ZM8.76931 4.76912C9.36408 4.76912 9.84623 5.25128 9.84623 5.84604V14.4614C9.84623 15.0562 9.36408 15.5383 8.76931 15.5383H7.69238C7.09762 15.5383 6.61546 15.0562 6.61546 14.4614V5.84604C6.61546 5.25128 7.09762 4.76912 7.69238 4.76912H8.76931Z" fill="#FFC362"/>
</svg>
