<svg width="1440" height="1219" viewBox="0 0 1440 1219" fill="none" xmlns="http://www.w3.org/2000/svg">
<path d="M1270.76 858.564C1165.48 916.574 911.654 858.881 654.298 710.296C396.942 561.711 219.832 370.602 217.664 250.559C229.489 244.011 243.403 238.668 259.13 235.009C380.781 206.517 605.914 266.751 834.03 398.455C1062.15 530.158 1226.88 695.011 1263.03 814.61C1267.72 830.059 1270.05 844.781 1270.53 858.43L1270.76 858.564Z" fill="#EB692D"/>
<path d="M920.454 249.304C570.041 46.9935 218.425 0.0404967 134.994 144.548C117.48 174.883 113.049 211.498 120.766 252.259C128.201 291.902 146.717 335.396 175.105 381.085C255.557 509.7 414.231 654.496 618.445 772.4C822.659 890.303 1027.26 955.559 1179 960.686C1232.77 962.426 1279.69 956.715 1317.74 943.332C1356.67 929.501 1386.39 907.49 1403.91 877.155C1487.34 732.647 1270.87 451.615 920.454 249.304ZM1283.69 850.106C1279.72 853.228 1275.43 855.844 1270.76 858.565C1165.48 916.575 911.656 858.882 654.3 710.297C396.944 561.712 219.834 370.603 217.666 250.56C217.552 245.399 217.807 240.132 218.527 235.134C220.048 222.317 223.795 210.468 230.001 199.719C293.574 89.6068 586.726 139.749 884.461 311.646C1182.2 483.543 1372.2 712.35 1308.62 822.462C1302.42 833.211 1293.89 842.619 1283.69 850.106Z" fill="#FA905F"/>
<path d="M1403.91 877.153L1303.51 1051.04C1220.08 1195.55 868.467 1148.6 518.054 946.285C167.641 743.974 -48.9674 463.181 34.4643 318.673L134.858 144.785C117.344 175.12 112.914 211.734 120.631 252.496C128.066 292.139 146.582 335.633 174.97 381.322C255.421 509.937 414.096 654.733 618.31 772.636C822.524 890.539 1027.12 955.796 1178.87 960.923C1232.63 962.663 1279.55 956.952 1317.6 943.569C1356.53 929.737 1386.26 907.727 1403.77 877.392L1403.91 877.153Z" fill="#802601"/>
<path d="M1308.76 822.224C1302.55 832.973 1294.03 842.381 1283.83 849.868C1279.86 852.99 1275.56 855.606 1270.9 858.327C1270.66 844.811 1268.09 829.956 1263.4 814.507C1227.25 694.908 1062.52 530.055 834.402 398.351C606.285 266.648 381.015 206.653 259.501 234.906C243.775 238.565 229.86 243.908 218.035 250.456C217.921 245.295 218.177 240.028 218.896 235.03C220.417 222.213 224.164 210.364 230.37 199.615C293.944 89.5026 587.096 139.644 884.831 311.542C1182.57 483.439 1372.57 712.245 1308.99 822.358L1308.76 822.224Z" fill="#802601"/>
</svg>
