<svg width="16" height="16" viewBox="0 0 16 16" fill="none" xmlns="http://www.w3.org/2000/svg">
<path d="M6.83333 9.16667L5.04167 7.375C4.88889 7.22222 4.69444 7.14583 4.45833 7.14583C4.22222 7.14583 4.02778 7.22222 3.875 7.375C3.72222 7.52778 3.64583 7.72222 3.64583 7.95833C3.64583 8.19444 3.72222 8.38889 3.875 8.54167L6.25 10.9167C6.41667 11.0833 6.61111 11.1667 6.83333 11.1667C7.05556 11.1667 7.25 11.0833 7.41667 10.9167L12.125 6.20833C12.2778 6.05556 12.3542 5.86111 12.3542 5.625C12.3542 5.38889 12.2778 5.19444 12.125 5.04167C11.9722 4.88889 11.7778 4.8125 11.5417 4.8125C11.3056 4.8125 11.1111 4.88889 10.9583 5.04167L6.83333 9.16667ZM2.16667 15.5C1.70833 15.5 1.31597 15.3368 0.989583 15.0104C0.663194 14.684 0.5 14.2917 0.5 13.8333V2.16667C0.5 1.70833 0.663194 1.31597 0.989583 0.989583C1.31597 0.663194 1.70833 0.5 2.16667 0.5H13.8333C14.2917 0.5 14.684 0.663194 15.0104 0.989583C15.3368 1.31597 15.5 1.70833 15.5 2.16667V13.8333C15.5 14.2917 15.3368 14.684 15.0104 15.0104C14.684 15.3368 14.2917 15.5 13.8333 15.5H2.16667ZM2.16667 13.8333H13.8333V2.16667H2.16667V13.8333Z" fill="#595959"/>
</svg>
