<svg width="35" height="36" viewBox="0 0 35 36" fill="none" xmlns="http://www.w3.org/2000/svg">
<path d="M33.2295 18.0001C33.9531 18.0001 34.5448 18.5876 34.4899 19.3091C34.222 22.8262 32.8795 26.1883 30.6285 28.9311C28.0995 32.0127 24.5803 34.122 20.6705 34.8997C16.7606 35.6775 12.7021 35.0754 9.18637 33.1962C5.67065 31.3171 2.91528 28.277 1.38974 24.594C-0.135801 20.911 -0.337123 16.813 0.820076 12.9982C1.97727 9.18345 4.4214 5.88794 7.73599 3.6732C11.0506 1.45845 15.0306 0.46152 18.9978 0.852258C22.529 1.20005 25.8557 2.62811 28.5321 4.92563C29.0811 5.39696 29.0781 6.23085 28.5664 6.74251C28.0548 7.25418 27.2287 7.24901 26.6732 6.78522C24.4305 4.91248 21.6687 3.74839 18.741 3.46004C15.3771 3.12872 12.0023 3.97405 9.19181 5.85198C6.38128 7.72991 4.30886 10.5243 3.32764 13.7589C2.34642 16.9935 2.51713 20.4683 3.81067 23.5912C5.10421 26.7141 7.44056 29.2918 10.4216 30.8853C13.4027 32.4787 16.844 32.9891 20.1592 32.3297C23.4745 31.6703 26.4585 29.8817 28.6029 27.2688C30.4692 24.9947 31.5989 22.2186 31.8606 19.3086C31.9254 18.5879 32.5059 18.0001 33.2295 18.0001Z" fill="#34B520"/>
<path d="M10.6447 22.021C10.1249 22.021 9.66336 21.9336 9.26009 21.7588C8.85916 21.5839 8.54448 21.345 8.31604 21.042C8.08993 20.7366 7.97804 20.3905 7.98037 20.0035C7.97804 19.7028 8.04331 19.4266 8.17618 19.1748C8.30904 18.9231 8.48853 18.7133 8.71464 18.5455C8.94308 18.3753 9.19716 18.2669 9.47688 18.2203V18.1713C9.10858 18.0898 8.81021 17.9021 8.58177 17.6084C8.35566 17.3124 8.24378 16.9709 8.24611 16.5839C8.24378 16.2156 8.34634 15.887 8.5538 15.5979C8.76126 15.3089 9.04564 15.0816 9.40695 14.9161C9.76825 14.7483 10.1808 14.6644 10.6447 14.6644C11.1039 14.6644 11.513 14.7483 11.872 14.9161C12.2333 15.0816 12.5177 15.3089 12.7251 15.5979C12.9349 15.887 13.0398 16.2156 13.0398 16.5839C13.0398 16.9709 12.9244 17.3124 12.6937 17.6084C12.4652 17.9021 12.1704 18.0898 11.809 18.1713V18.2203C12.0888 18.2669 12.3405 18.3753 12.5643 18.5455C12.7904 18.7133 12.9699 18.9231 13.1028 19.1748C13.2379 19.4266 13.3055 19.7028 13.3055 20.0035C13.3055 20.3905 13.1913 20.7366 12.9629 21.042C12.7345 21.345 12.4198 21.5839 12.0188 21.7588C11.6202 21.9336 11.1622 22.021 10.6447 22.021ZM10.6447 21.021C10.9128 21.021 11.1459 20.9755 11.344 20.8846C11.5421 20.7914 11.696 20.6609 11.8055 20.493C11.9151 20.3252 11.971 20.1317 11.9734 19.9126C11.971 19.6842 11.9116 19.4825 11.7951 19.3077C11.6808 19.1306 11.5235 18.9919 11.323 18.8916C11.1249 18.7914 10.8988 18.7413 10.6447 18.7413C10.3883 18.7413 10.1599 18.7914 9.95939 18.8916C9.75893 18.9919 9.60042 19.1306 9.48387 19.3077C9.36965 19.4825 9.31371 19.6842 9.31604 19.9126C9.31371 20.1317 9.36732 20.3252 9.47688 20.493C9.58643 20.6585 9.74028 20.7879 9.93842 20.8811C10.1389 20.9744 10.3743 21.021 10.6447 21.021ZM10.6447 17.7588C10.8638 17.7588 11.0573 17.7145 11.2251 17.6259C11.3953 17.5373 11.5293 17.4138 11.6272 17.2553C11.7251 17.0968 11.7752 16.9138 11.7776 16.7063C11.7752 16.5012 11.7263 16.3217 11.6307 16.1679C11.5352 16.0117 11.4023 15.8916 11.2321 15.8077C11.062 15.7215 10.8662 15.6783 10.6447 15.6783C10.4186 15.6783 10.2193 15.7215 10.0468 15.8077C9.87664 15.8916 9.74378 16.0117 9.64821 16.1679C9.55497 16.3217 9.50951 16.5012 9.51184 16.7063C9.50951 16.9138 9.55613 17.0968 9.6517 17.2553C9.7496 17.4114 9.88364 17.535 10.0538 17.6259C10.2263 17.7145 10.4233 17.7588 10.6447 17.7588ZM17.4907 14.7623V21.9231H16.1935V16.0245H16.1515L14.4767 17.0944V15.9056L16.2564 14.7623H17.4907ZM23.2606 20.5804V20.2028C23.2606 19.9254 23.3189 19.6702 23.4354 19.4371C23.5543 19.204 23.7268 19.0163 23.9529 18.8741C24.179 18.732 24.4529 18.6609 24.7746 18.6609C25.1056 18.6609 25.383 18.732 25.6068 18.8741C25.8305 19.014 25.9995 19.2005 26.1138 19.4336C26.2303 19.6667 26.2886 19.9231 26.2886 20.2028V20.5804C26.2886 20.8578 26.2303 21.1131 26.1138 21.3462C25.9972 21.5793 25.8259 21.7669 25.5998 21.9091C25.376 22.0513 25.1009 22.1224 24.7746 22.1224C24.4483 22.1224 24.172 22.0513 23.9459 21.9091C23.7198 21.7669 23.5485 21.5793 23.4319 21.3462C23.3177 21.1131 23.2606 20.8578 23.2606 20.5804ZM24.1732 20.2028V20.5804C24.1732 20.7646 24.2175 20.9336 24.3061 21.0874C24.3947 21.2413 24.5508 21.3182 24.7746 21.3182C25.0007 21.3182 25.1557 21.2424 25.2396 21.0909C25.3259 20.9371 25.369 20.7669 25.369 20.5804V20.2028C25.369 20.0163 25.3282 19.8462 25.2466 19.6923C25.165 19.5361 25.0077 19.4581 24.7746 19.4581C24.5555 19.4581 24.4005 19.5361 24.3096 19.6923C24.2187 19.8462 24.1732 20.0163 24.1732 20.2028ZM19.6208 16.4825V16.1049C19.6208 15.8252 19.6802 15.5688 19.7991 15.3357C19.918 15.1026 20.0905 14.9161 20.3166 14.7762C20.5427 14.6341 20.8166 14.563 21.1382 14.563C21.4669 14.563 21.7431 14.6341 21.9669 14.7762C22.193 14.9161 22.3632 15.1026 22.4774 15.3357C22.5916 15.5688 22.6487 15.8252 22.6487 16.1049V16.4825C22.6487 16.7623 22.5905 17.0187 22.4739 17.2518C22.3597 17.4825 22.1895 17.6679 21.9634 17.8077C21.7373 17.9476 21.4623 18.0175 21.1382 18.0175C20.8096 18.0175 20.5322 17.9476 20.3061 17.8077C20.0823 17.6679 19.9121 17.4814 19.7956 17.2483C19.679 17.0152 19.6208 16.7599 19.6208 16.4825ZM20.5403 16.1049V16.4825C20.5403 16.669 20.5835 16.8392 20.6697 16.993C20.7583 17.1445 20.9145 17.2203 21.1382 17.2203C21.362 17.2203 21.5159 17.1445 21.5998 16.993C21.686 16.8392 21.7292 16.669 21.7292 16.4825V16.1049C21.7292 15.9184 21.6884 15.7483 21.6068 15.5944C21.5252 15.4382 21.369 15.3602 21.1382 15.3602C20.9168 15.3602 20.7618 15.4382 20.6732 15.5944C20.5846 15.7506 20.5403 15.9208 20.5403 16.1049ZM20.0194 21.9231L24.9424 14.7623H25.8166L20.8935 21.9231H20.0194Z" fill="black"/>
</svg>
