<svg width="110" height="24" viewBox="0 0 110 24" fill="none" xmlns="http://www.w3.org/2000/svg">
<path fill-rule="evenodd" clip-rule="evenodd" d="M0.0139484 12C0.0139484 18.6275 5.23519 24 11.6759 24C18.1167 24 23.3379 18.6275 23.3379 12C23.3379 5.60753 18.4803 0.382471 12.3562 0.0199952L0.305468 0C0.198135 0 0.111109 0.089551 0.111109 0.199952C0.111109 2.03164 1.30758 3.57572 2.94019 4.04996C1.11928 6.16688 0.0139484 8.95065 0.0139484 12ZM11.5593 5.07501C9.69144 5.07501 8.17729 15.607 8.17729 17.54C8.17729 19.4731 9.69144 20.825 11.5593 20.825C13.4271 20.825 14.9412 19.4731 14.9412 17.54C14.9412 15.607 13.4271 5.07501 11.5593 5.07501Z" fill="#00A462"/>
<path d="M38.9878 3.99665H41.3197V13.8132C41.3197 15.122 40.9996 16.2461 40.3595 17.1854C39.7194 18.1401 38.7973 18.8715 37.5932 19.3797C36.3891 19.9032 34.9412 20.165 33.2494 20.165L32.8607 17.9245C34.7811 17.8783 36.2367 17.5088 37.2274 16.8158C38.2333 16.1229 38.7363 15.1297 38.7363 13.8362V13.8132H39.0335C38.6829 14.3367 38.1724 14.7833 37.5017 15.1528C36.8463 15.5224 36.0614 15.7072 35.1469 15.7072C34.141 15.7072 33.2494 15.4608 32.472 14.968C31.6947 14.4753 31.0851 13.7824 30.6431 12.8892C30.2163 11.9961 30.0029 10.9567 30.0029 9.77106C30.0029 8.58538 30.2163 7.54599 30.6431 6.65288C31.0851 5.75977 31.6947 5.06684 32.472 4.57409C33.2494 4.08134 34.141 3.83496 35.1469 3.83496C35.7109 3.83496 36.2214 3.91195 36.6787 4.06594C37.1512 4.20452 37.5627 4.397 37.9132 4.64338C38.279 4.87436 38.5763 5.13613 38.8049 5.4287L38.9878 3.99665ZM32.7693 9.77106C32.7693 10.8336 33.0436 11.6959 33.5923 12.358C34.141 13.0201 34.8726 13.3512 35.7871 13.3512C36.3205 13.3512 36.8082 13.2126 37.2502 12.9354C37.6922 12.6429 38.0504 12.2271 38.3248 11.6882C38.5991 11.1492 38.7363 10.5102 38.7363 9.77106C38.7363 9.00114 38.5991 8.3544 38.3248 7.83086C38.0504 7.29191 37.6846 6.88385 37.2274 6.60668C36.7854 6.32951 36.3053 6.19092 35.7871 6.19092C34.8726 6.19092 34.141 6.52199 33.5923 7.18412C33.0436 7.83086 32.7693 8.69317 32.7693 9.77106Z" fill="#00A462"/>
<path d="M42.7506 3.99665H45.0825L45.2883 5.4287C45.5931 5.04374 45.9513 4.72807 46.3628 4.4817C46.7743 4.21992 47.2163 4.04284 47.6888 3.95045C48.1765 3.85806 48.6643 3.87346 49.152 3.99665V6.3988C48.7557 6.26022 48.3289 6.22942 47.8717 6.30641C47.4297 6.368 47.0182 6.53739 46.6371 6.81456C46.2561 7.07633 45.9436 7.45359 45.6998 7.94634C45.4559 8.4237 45.334 9.01654 45.334 9.72486V15.5455H42.7506V3.99665Z" fill="#00A462"/>
<path d="M54.6878 15.7072C53.5905 15.7072 52.6074 15.4685 51.7386 14.9911C50.8699 14.4984 50.1916 13.8132 49.7039 12.9354C49.2162 12.0423 48.9723 10.9952 48.9723 9.79416C48.9723 8.57768 49.2238 7.52289 49.7267 6.62978C50.2297 5.73667 50.9232 5.05144 51.8072 4.57409C52.6912 4.08134 53.6743 3.83496 54.7564 3.83496C55.8538 3.83496 56.8369 4.08134 57.7057 4.57409C58.5897 5.05144 59.2908 5.73667 59.809 6.62978C60.3272 7.50749 60.5863 8.54688 60.5863 9.74796C60.5863 10.9644 60.3196 12.0192 59.7861 12.9123C59.2679 13.8055 58.5592 14.4984 57.6599 14.9911C56.7759 15.4685 55.7852 15.7072 54.6878 15.7072ZM54.665 13.3743C55.1984 13.3743 55.7014 13.2434 56.1739 12.9816C56.6616 12.7199 57.0579 12.3272 57.3627 11.8037C57.6675 11.2647 57.82 10.5795 57.82 9.74796C57.82 8.94724 57.6752 8.28511 57.3856 7.76156C57.096 7.22262 56.715 6.82226 56.2425 6.56048C55.77 6.29871 55.2594 6.16782 54.7107 6.16782C54.1773 6.16782 53.6819 6.29871 53.2247 6.56048C52.7827 6.82226 52.4245 7.22262 52.1501 7.76156C51.8758 8.28511 51.7386 8.96264 51.7386 9.79416C51.7386 10.5949 51.8682 11.2647 52.1273 11.8037C52.4016 12.3272 52.7598 12.7199 53.2018 12.9816C53.6438 13.2434 54.1315 13.3743 54.665 13.3743Z" fill="#00A462"/>
<path d="M66.4599 15.5455H63.9222L60.4014 3.99665H63.0306L65.1796 12.4504L67.3973 3.99665H69.9121L72.0383 12.4273L74.1645 3.99665H76.7479L73.25 15.5455H70.6665L68.5861 7.73847L66.4599 15.5455Z" fill="#00A462"/>
<path d="M77.1769 3.99665H79.5089L79.6917 5.12843C80.0728 4.72807 80.5224 4.4124 81.0406 4.18143C81.5741 3.95045 82.1456 3.83496 82.7553 3.83496C83.6545 3.83496 84.4242 4.02744 85.0644 4.4124C85.7197 4.78196 86.2227 5.33631 86.5733 6.07543C86.9238 6.79916 87.0991 7.70767 87.0991 8.80096V15.5455H84.5157V9.14742C84.5157 8.17732 84.3175 7.4459 83.9213 6.95315C83.5402 6.4604 82.961 6.21402 82.1837 6.21402C81.3912 6.21402 80.7891 6.46809 80.3776 6.97624C79.9661 7.46899 79.7603 8.20042 79.7603 9.17052V15.5455H77.1769V3.99665Z" fill="#00A462"/>
<path d="M93.4684 15.7072C92.3253 15.7072 91.3193 15.4531 90.4506 14.9449C89.597 14.4368 88.9264 13.7285 88.4387 12.82C87.9662 11.9114 87.73 10.8643 87.73 9.67867C87.73 8.55458 87.9662 7.55368 88.4387 6.67597C88.9112 5.79826 89.5665 5.10533 90.4048 4.59718C91.2431 4.08904 92.1957 3.83496 93.2626 3.83496C94.3447 3.83496 95.2973 4.07364 96.1204 4.55099C96.9434 5.02834 97.5836 5.69817 98.0408 6.56048C98.5133 7.4074 98.7495 8.3929 98.7495 9.51699C98.7495 9.70177 98.7419 9.90195 98.7267 10.1175C98.7114 10.3177 98.6886 10.5333 98.6581 10.7643H90.5191C90.5953 11.3032 90.763 11.7729 91.0221 12.1732C91.2965 12.5582 91.6394 12.8584 92.0509 13.074C92.4624 13.2896 92.9349 13.3974 93.4684 13.3974C94.1085 13.3974 94.6801 13.2665 95.183 13.0047C95.7012 12.743 96.0594 12.3965 96.2575 11.9653L98.5209 12.7276C98.0637 13.6515 97.3854 14.3829 96.4862 14.9218C95.5869 15.4454 94.581 15.7072 93.4684 15.7072ZM95.9375 8.63927C95.9222 8.16192 95.7927 7.73077 95.5488 7.34581C95.305 6.96084 94.9849 6.66057 94.5886 6.445C94.1923 6.21402 93.7503 6.09853 93.2626 6.09853C92.8358 6.09853 92.4319 6.20632 92.0509 6.4219C91.6699 6.63748 91.3422 6.93775 91.0678 7.32271C90.8087 7.69227 90.6411 8.13113 90.5649 8.63927H95.9375Z" fill="#00A462"/>
<path d="M104.706 15.7072C103.563 15.7072 102.557 15.4531 101.688 14.9449C100.834 14.4368 100.164 13.7285 99.676 12.82C99.2035 11.9114 98.9673 10.8643 98.9673 9.67867C98.9673 8.55458 99.2035 7.55368 99.676 6.67597C100.148 5.79826 100.804 5.10533 101.642 4.59718C102.48 4.08904 103.433 3.83496 104.5 3.83496C105.582 3.83496 106.535 4.07364 107.358 4.55099C108.181 5.02834 108.821 5.69817 109.278 6.56048C109.751 7.4074 109.987 8.3929 109.987 9.51699C109.987 9.70177 109.979 9.90195 109.964 10.1175C109.949 10.3177 109.926 10.5333 109.895 10.7643H101.756C101.833 11.3032 102 11.7729 102.259 12.1732C102.534 12.5582 102.877 12.8584 103.288 13.074C103.7 13.2896 104.172 13.3974 104.706 13.3974C105.346 13.3974 105.917 13.2665 106.42 13.0047C106.939 12.743 107.297 12.3965 107.495 11.9653L109.758 12.7276C109.301 13.6515 108.623 14.3829 107.723 14.9218C106.824 15.4454 105.818 15.7072 104.706 15.7072ZM107.175 8.63927C107.16 8.16192 107.03 7.73077 106.786 7.34581C106.542 6.96084 106.222 6.66057 105.826 6.445C105.43 6.21402 104.988 6.09853 104.5 6.09853C104.073 6.09853 103.669 6.20632 103.288 6.4219C102.907 6.63748 102.579 6.93775 102.305 7.32271C102.046 7.69227 101.878 8.13113 101.802 8.63927H107.175Z" fill="#00A462"/>
</svg>
