<svg width="1440" height="180" viewBox="0 0 1440 180" fill="none" xmlns="http://www.w3.org/2000/svg">
<path d="M58.371 3.76842H103.747V194.781C103.747 220.25 97.5187 242.122 85.0627 260.4C72.6066 278.977 54.6639 293.209 31.2346 303.097C7.80527 313.284 -20.3692 318.378 -53.2888 318.378L-60.8515 274.782C-23.4832 273.883 4.83953 266.692 24.1168 253.209C43.6906 239.725 53.4776 220.399 53.4776 195.231V194.781H59.2608C52.4396 204.969 42.5044 213.658 29.4551 220.849C16.7025 228.04 1.42895 231.635 -16.3655 231.635C-35.9393 231.635 -53.2888 226.841 -68.4141 217.253C-83.5393 207.665 -95.4023 194.182 -104.003 176.804C-112.307 159.425 -116.459 139.2 -116.459 116.129C-116.459 93.0575 -112.307 72.8326 -104.003 55.4542C-95.4023 38.0758 -83.5393 24.5926 -68.4141 15.0045C-53.2888 5.41636 -35.9393 0.622314 -16.3655 0.622314C-5.39224 0.622314 4.54296 2.12046 13.4402 5.11674C22.6339 7.81339 30.6414 11.5587 37.4626 16.3528C44.5804 20.8472 50.3636 25.9409 54.8121 31.6338L58.371 3.76842ZM-62.6309 116.129C-62.6309 136.803 -57.2926 153.582 -46.6159 166.466C-35.9393 179.35 -21.7038 185.792 -3.90938 185.792C6.47069 185.792 15.961 183.096 24.5617 177.702C33.1623 172.009 40.1318 163.92 45.4701 153.433C50.8084 142.946 53.4776 130.511 53.4776 116.129C53.4776 101.147 50.8084 88.5631 45.4701 78.3758C40.1318 67.8888 33.014 59.9487 24.1168 54.5553C15.5162 49.162 6.17412 46.4654 -3.90938 46.4654C-21.7038 46.4654 -35.9393 52.9074 -46.6159 65.7914C-57.2926 78.3758 -62.6309 95.1549 -62.6309 116.129Z" fill="#2D3936"/>
<path d="M131.589 3.76842H176.964L180.968 31.6338C186.9 24.1431 193.869 18.0007 201.877 13.2067C209.884 8.11301 218.485 4.66729 227.679 2.86952C237.169 1.07176 246.659 1.37139 256.15 3.76842V50.5104C248.439 47.8137 240.135 47.2145 231.237 48.7126C222.637 49.9111 214.629 53.207 207.215 58.6003C199.801 63.694 193.721 71.0349 188.976 80.623C184.231 89.9114 181.858 101.447 181.858 115.23V228.489H131.589V3.76842Z" fill="#2D3936"/>
<path d="M363.868 231.635C342.515 231.635 323.386 226.991 306.481 217.703C289.577 208.115 276.379 194.781 266.889 177.702C257.398 160.324 252.653 139.949 252.653 116.578C252.653 92.9077 257.547 72.3832 267.334 55.0048C277.121 37.6264 290.615 24.2929 307.816 15.0045C325.017 5.41636 344.146 0.622314 365.203 0.622314C386.556 0.622314 405.685 5.41636 422.59 15.0045C439.791 24.2929 453.433 37.6264 463.517 55.0048C473.6 72.0836 478.642 92.3085 478.642 115.679C478.642 139.35 473.452 159.875 463.072 177.253C452.989 194.631 439.198 208.115 421.7 217.703C404.499 226.991 385.222 231.635 363.868 231.635ZM363.423 186.242C373.803 186.242 383.59 183.695 392.784 178.601C402.275 173.508 409.985 165.867 415.917 155.68C421.848 145.193 424.814 131.859 424.814 115.679C424.814 100.099 421.997 87.2148 416.362 77.0274C410.727 66.5405 403.312 58.7501 394.119 53.6565C384.925 48.5628 374.99 46.0159 364.313 46.0159C353.933 46.0159 344.294 48.5628 335.397 53.6565C326.797 58.7501 319.827 66.5405 314.489 77.0274C309.15 87.2148 306.481 100.398 306.481 116.578C306.481 132.159 309.002 145.193 314.044 155.68C319.382 165.867 326.352 173.508 334.952 178.601C343.553 183.695 353.043 186.242 363.423 186.242Z" fill="#2D3936"/>
<path d="M592.933 228.489H543.553L475.045 3.76842H526.204L568.021 168.264L611.172 3.76842H660.107L701.479 167.815L742.851 3.76842H793.12L725.056 228.489H674.787L634.305 76.578L592.933 228.489Z" fill="#2D3936"/>
<path d="M801.468 3.76842H846.844L850.403 25.7911C857.817 18.0007 866.566 11.8584 876.649 7.36395C887.029 2.86953 898.151 0.622314 910.014 0.622314C927.512 0.622314 942.489 4.36766 954.945 11.8584C967.697 19.0494 977.484 29.836 984.306 44.2182C991.127 58.3007 994.537 75.9788 994.537 97.2523V228.489H944.268V103.994C944.268 85.1174 940.413 70.8851 932.702 61.297C925.287 51.7089 914.018 46.9148 898.892 46.9148C883.471 46.9148 871.756 51.8587 863.748 61.7464C855.741 71.3345 851.737 85.5668 851.737 104.443V228.489H801.468V3.76842Z" fill="#2D3936"/>
<path d="M1118.47 231.635C1096.23 231.635 1076.66 226.692 1059.75 216.804C1043.14 206.916 1030.09 193.133 1020.6 175.455C1011.41 157.777 1006.81 137.402 1006.81 114.331C1006.81 92.4583 1011.41 72.9825 1020.6 55.9037C1029.8 38.8249 1042.55 25.3416 1058.86 15.4539C1075.17 5.56617 1093.71 0.622314 1114.47 0.622314C1135.53 0.622314 1154.06 5.26655 1170.08 14.555C1186.09 23.8435 1198.55 36.8773 1207.44 53.6565C1216.64 70.136 1221.24 89.3122 1221.24 111.185C1221.24 114.781 1221.09 118.676 1220.79 122.871C1220.49 126.766 1220.05 130.96 1219.46 135.455H1061.09C1062.57 145.942 1065.83 155.081 1070.87 162.871C1076.21 170.362 1082.88 176.204 1090.89 180.399C1098.9 184.594 1108.09 186.691 1118.47 186.691C1130.93 186.691 1142.05 184.144 1151.84 179.051C1161.92 173.957 1168.89 167.215 1172.75 158.826L1216.79 173.657C1207.89 191.635 1194.69 205.867 1177.19 216.354C1159.7 226.542 1140.12 231.635 1118.47 231.635ZM1166.52 94.1062C1166.22 84.8178 1163.7 76.4282 1158.95 68.9375C1154.21 61.4468 1147.98 55.604 1140.27 51.4093C1132.56 46.9148 1123.96 44.6676 1114.47 44.6676C1106.16 44.6676 1098.31 46.765 1090.89 50.9598C1083.48 55.1546 1077.1 60.9973 1071.76 68.4881C1066.72 75.6791 1063.46 84.2185 1061.98 94.1062H1166.52Z" fill="#2D3936"/>
<path d="M1337.13 231.635C1314.89 231.635 1295.31 226.692 1278.41 216.804C1261.8 206.916 1248.75 193.133 1239.26 175.455C1230.07 157.777 1225.47 137.402 1225.47 114.331C1225.47 92.4583 1230.07 72.9825 1239.26 55.9037C1248.46 38.8249 1261.21 25.3416 1277.52 15.4539C1293.83 5.56617 1312.37 0.622314 1333.13 0.622314C1354.18 0.622314 1372.72 5.26655 1388.74 14.555C1404.75 23.8435 1417.21 36.8773 1426.1 53.6565C1435.3 70.136 1439.89 89.3122 1439.89 111.185C1439.89 114.781 1439.75 118.676 1439.45 122.871C1439.15 126.766 1438.71 130.96 1438.11 135.455H1279.74C1281.23 145.942 1284.49 155.081 1289.53 162.871C1294.87 170.362 1301.54 176.204 1309.55 180.399C1317.56 184.594 1326.75 186.691 1337.13 186.691C1349.59 186.691 1360.71 184.144 1370.5 179.051C1380.58 173.957 1387.55 167.215 1391.4 158.826L1435.45 173.657C1426.55 191.635 1413.35 205.867 1395.85 216.354C1378.36 226.542 1358.78 231.635 1337.13 231.635ZM1385.18 94.1062C1384.88 84.8178 1382.36 76.4282 1377.61 68.9375C1372.87 61.4468 1366.64 55.604 1358.93 51.4093C1351.22 46.9148 1342.62 44.6676 1333.13 44.6676C1324.82 44.6676 1316.96 46.765 1309.55 50.9598C1302.14 55.1546 1295.76 60.9973 1290.42 68.4881C1285.38 75.6791 1282.12 84.2185 1280.63 94.1062H1385.18Z" fill="#2D3936"/>
</svg>
