<svg width="20" height="20" viewBox="0 0 20 20" fill="none" xmlns="http://www.w3.org/2000/svg">
<path d="M6.09253 0.625C3.0779 0.625 0.625 3.07935 0.625 6.09473V13.9067C0.625 16.9217 3.07935 19.375 6.09473 19.375H13.9067C16.9217 19.375 19.375 16.9206 19.375 13.9053V6.09253C19.375 3.0779 16.9206 0.625 13.9053 0.625H6.09253ZM15.625 3.625C16.039 3.625 16.375 3.961 16.375 4.375C16.375 4.789 16.039 5.125 15.625 5.125C15.211 5.125 14.875 4.789 14.875 4.375C14.875 3.961 15.211 3.625 15.625 3.625ZM10 5.125C12.6888 5.125 14.875 7.31125 14.875 10C14.875 12.6888 12.6884 14.875 10 14.875C7.31125 14.875 5.125 12.6884 5.125 10C5.125 7.31163 7.31125 5.125 10 5.125ZM10 6.625C8.13587 6.625 6.625 8.13587 6.625 10C6.625 11.8641 8.13587 13.375 10 13.375C11.8641 13.375 13.375 11.8641 13.375 10C13.375 8.13587 11.8641 6.625 10 6.625Z" fill="white"/>
</svg>
