<svg width="20" height="20" viewBox="0 0 20 20" fill="none" xmlns="http://www.w3.org/2000/svg">
<path d="M16.4004 0.400024C17.2491 0.400024 18.063 0.737166 18.6631 1.33728C19.2632 1.9374 19.6004 2.75133 19.6004 3.60002V16.4C19.6004 17.2487 19.2632 18.0626 18.6631 18.6628C18.063 19.2629 17.2491 19.6 16.4004 19.6H3.60039C2.7517 19.6 1.93777 19.2629 1.33765 18.6628C0.737533 18.0626 0.400391 17.2487 0.400391 16.4V3.60002C0.400391 2.75133 0.737533 1.9374 1.33765 1.33728C1.93777 0.737166 2.7517 0.400024 3.60039 0.400024L16.4004 0.400024ZM7.56039 7.92002H5.32839V14.4H7.56839V7.92002H7.56039ZM13.0324 7.76802C11.9764 7.76802 11.4324 8.27202 11.1284 8.69602L11.0244 8.84002V7.92002H8.79239L8.80039 8.31202V14.4H11.0244V10.784C11.0111 10.6165 11.0327 10.4479 11.0879 10.2892C11.143 10.1304 11.2305 9.98471 11.3447 9.86143C11.459 9.73814 11.5976 9.63988 11.7518 9.57286C11.9059 9.50583 12.0723 9.4715 12.2404 9.47202C13.0084 9.47202 13.3364 10 13.3684 10.8V14.4H15.6004V10.688C15.6004 8.69602 14.5044 7.76802 13.0404 7.76802H13.0324ZM6.46439 4.80002C5.69639 4.80002 5.20039 5.28002 5.20039 5.92002C5.20039 6.50402 5.63239 6.97602 6.30439 7.04002H6.44839C7.22439 7.04002 7.70439 6.54402 7.70439 5.92002C7.69639 5.28002 7.22439 4.80002 6.46439 4.80002Z" fill="white"/>
</svg>
