<svg width="18" height="17" viewBox="0 0 18 17" fill="none" xmlns="http://www.w3.org/2000/svg">
<path d="M12.5245 1.93898L17.2816 4.38405C17.734 4.61633 17.766 4.91127 17.7454 5.0679L15.4715 9.21689C15.4715 9.21689 15.1337 9.47592 14.644 9.18327L10.3575 6.62282C10.335 6.60958 10.3101 6.60105 10.2842 6.59774C10.2584 6.59443 10.2321 6.59641 10.207 6.60355C10.1819 6.61069 10.1586 6.62287 10.1383 6.6393C10.1181 6.65575 10.1014 6.67614 10.0893 6.69923L9.90362 7.06217C9.88969 7.08909 9.88242 7.11895 9.88242 7.14927C9.88242 7.17959 9.88969 7.20946 9.90362 7.23638L13.883 15.0094C13.9311 15.099 13.961 15.1971 13.9706 15.2984C13.9804 15.3995 13.9698 15.5016 13.9395 15.5988C13.9093 15.6958 13.86 15.7859 13.7945 15.8636C13.729 15.9414 13.6486 16.0053 13.5582 16.0516C13.4677 16.0979 13.3689 16.1256 13.2675 16.1333C13.1661 16.141 13.0642 16.1283 12.9679 16.096C12.8714 16.0639 12.7824 16.0126 12.706 15.9456C12.6296 15.8785 12.5674 15.7969 12.5229 15.7055L7.91242 6.69923C7.90052 6.67605 7.88402 6.65557 7.86391 6.639C7.84381 6.62245 7.82054 6.61018 7.79551 6.60295C7.77009 6.59554 7.74341 6.59342 7.71714 6.59669C7.69085 6.59998 7.66552 6.60862 7.6427 6.62206L3.35619 9.1825C2.86716 9.47514 2.59286 9.26732 2.52944 9.21612C2.41874 9.11527 0.28115 5.21685 0.254762 5.06943C0.233367 4.91355 0.266987 4.6148 0.719325 4.38558L5.47652 1.9405L5.30231 1.59973C5.21489 1.41992 5.20142 1.213 5.26481 1.02338C5.32819 0.833755 5.46337 0.67653 5.64136 0.585442C5.81934 0.494355 6.02594 0.476655 6.21682 0.536142C6.4077 0.59563 6.56766 0.727567 6.66237 0.903642L8.83085 5.13897C8.84665 5.17037 8.87089 5.19673 8.90086 5.21509C8.93084 5.23344 8.96534 5.24307 9.00047 5.24288C9.0357 5.24295 9.07025 5.23328 9.10032 5.21494C9.1304 5.1966 9.15481 5.17032 9.17087 5.13897L11.3386 0.902117C11.4333 0.726042 11.5932 0.594105 11.7841 0.534605C11.975 0.475117 12.1816 0.492817 12.3596 0.583917C12.5376 0.675005 12.6728 0.83223 12.7361 1.02185C12.7995 1.21147 12.7861 1.41838 12.6986 1.59819L12.5245 1.93898Z" fill="white"/>
<path d="M4.11804 15.0098C4.06988 15.0993 4.04006 15.1975 4.03035 15.2986C4.02064 15.3999 4.03121 15.502 4.06146 15.599C4.09171 15.6961 4.14101 15.7861 4.2065 15.8639C4.27199 15.9416 4.35234 16.0055 4.44283 16.0519C4.53333 16.0981 4.63215 16.126 4.73353 16.1336C4.83489 16.1413 4.93676 16.1286 5.03319 16.0964C5.1296 16.0641 5.21861 16.013 5.29501 15.9459C5.37141 15.8789 5.43366 15.7973 5.47811 15.7058L8.52681 9.75128C8.54039 9.72424 8.54745 9.69442 8.54745 9.66417C8.54745 9.63393 8.54039 9.60409 8.52681 9.57707L7.88269 8.31938C7.86665 8.28809 7.8423 8.26183 7.8123 8.24349C7.78231 8.22517 7.74783 8.21545 7.71268 8.21545C7.67751 8.21545 7.64304 8.22517 7.61305 8.24349C7.58305 8.26183 7.5587 8.28809 7.54266 8.31938L4.11804 15.0098Z" fill="white"/>
</svg>
