<svg width="35" height="35" viewBox="0 0 35 35" fill="none" xmlns="http://www.w3.org/2000/svg">
<path fill-rule="evenodd" clip-rule="evenodd" d="M0.377239 17.3333C0.377239 26.9063 7.91903 34.6667 17.2223 34.6667C26.5256 34.6667 34.0674 26.9063 34.0674 17.3333C34.0674 8.09977 27.0509 0.552459 18.2049 0.0288819L0.798325 0C0.643288 0 0.517582 0.129351 0.517582 0.288819C0.517582 2.9346 2.24582 5.16492 4.60403 5.84994C1.97383 8.90772 0.377239 12.9287 0.377239 17.3333ZM17.0538 7.33057C14.3558 7.33057 12.1687 22.5434 12.1687 25.3356C12.1687 28.1278 14.3558 30.0806 17.0538 30.0806C19.7518 30.0806 21.9389 28.1278 21.9389 25.3356C21.9389 22.5434 19.7518 7.33057 17.0538 7.33057Z" fill="#00D47F"/>
</svg>
