<svg width="1120" height="763" viewBox="0 0 1120 763" fill="none" xmlns="http://www.w3.org/2000/svg">
<path d="M0 12C0 5.37259 5.37258 0 12 0H1108C1114.63 0 1120 5.37258 1120 12V443C1120 619.731 976.731 763 800 763H12C5.37259 763 0 757.627 0 751V12Z" fill="white"/>
<path d="M747.369 357.608L747.348 357.586" stroke="#231F20" stroke-miterlimit="10"/>
<path d="M1119.95 379V449.38C1119.95 617.68 987.4 755.02 821 762.7C982.664 745.818 966.641 622.997 959.612 590.909C958.911 587.707 962.176 584.803 965.34 585.658C1087.11 618.545 1119.95 379 1119.95 379Z" fill="#D6D6D6"/>
</svg>
