<svg width="301" height="137" viewBox="0 0 301 137" fill="none" xmlns="http://www.w3.org/2000/svg">
<rect y="75" width="16" height="62" rx="4" fill="#E3E8E7"/>
<rect x="40.7139" y="93" width="16" height="44" rx="4" fill="#E3E8E7"/>
<rect x="81.4287" y="23" width="16" height="114" rx="4" fill="#E3E8E7"/>
<rect x="122.143" y="47" width="16" height="90" rx="4" fill="#E3E8E7"/>
<rect x="162.857" y="23" width="16" height="114" rx="4" fill="#E3E8E7"/>
<rect x="203.571" width="16" height="137" rx="4" fill="#00D47F"/>
<rect x="244.286" y="85" width="16" height="52" rx="4" fill="#E3E8E7"/>
<rect x="285" y="63" width="16" height="74" rx="4" fill="#E3E8E7"/>
<path d="M168.904 50.2481C168.823 53.599 162.885 58.9239 154.246 63.0669C145.606 67.2098 137.077 68.8222 133.55 67.201C133.559 66.8242 133.637 66.4137 133.794 65.9829C135.008 62.6482 140.538 58.0516 148.196 54.3793C155.854 50.7071 163.412 49.0276 167.496 49.822C168.024 49.924 168.491 50.073 168.896 50.2519L168.904 50.2481Z" fill="#F8E3C7"/>
<path d="M145.311 50.2129C133.547 55.8539 126.28 63.6899 129.081 67.7192C129.669 68.565 130.659 69.1825 131.974 69.5644C133.251 69.9375 134.826 70.0968 136.631 70.0483C141.721 69.8987 148.594 68.0858 155.45 64.7983C162.305 61.5108 167.637 57.4802 170.333 53.8874C171.286 52.6134 171.908 51.4007 172.157 50.2953C172.409 49.1625 172.268 48.1379 171.68 47.292C168.879 43.2627 157.075 44.5719 145.311 50.2129ZM168.875 49.8178C168.9 49.9572 168.903 50.0974 168.904 50.2479C168.824 53.5988 162.886 58.9237 154.246 63.0667C145.606 67.2097 137.077 68.8221 133.551 67.2008C133.399 67.1316 133.25 67.052 133.117 66.965C132.77 66.7496 132.488 66.4939 132.28 66.1942C130.146 63.1239 136.524 56.7442 146.519 51.9512C156.515 47.1582 166.356 45.7601 168.49 48.8304C168.699 49.1301 168.829 49.4671 168.875 49.8178Z" fill="#FAF1E5"/>
<path d="M171.685 47.2921L175.055 52.1406C177.856 56.1698 170.589 64.0058 158.825 69.6468C147.061 75.2878 135.262 76.6037 132.461 72.5744L129.091 67.7259C129.679 68.5717 130.669 69.1892 131.983 69.5711C133.261 69.9442 134.836 70.1035 136.641 70.055C141.73 69.9054 148.604 68.0925 155.459 64.805C162.315 61.5175 167.646 57.4869 170.343 53.8941C171.296 52.6201 171.917 51.4074 172.167 50.302C172.418 49.1692 172.277 48.1446 171.689 47.2987L171.685 47.2921Z" fill="#F2C891"/>
<path d="M168.486 48.8238C168.695 49.1235 168.825 49.4606 168.871 49.8113C168.896 49.9506 168.899 50.0908 168.9 50.2414C168.503 50.0588 168.028 49.9136 167.5 49.8115C163.417 49.0171 155.859 50.6966 148.201 54.3689C140.542 58.0411 135.017 62.6444 133.799 65.9724C133.641 66.4032 133.563 66.8137 133.555 67.1905C133.403 67.1213 133.254 67.0417 133.121 66.9547C132.774 66.7393 132.492 66.4836 132.284 66.1839C130.149 63.1136 136.528 56.7339 146.523 51.9409C156.518 47.1479 166.36 45.7498 168.494 48.8201L168.486 48.8238Z" fill="#F2C891"/>
</svg>
